BodoniModa-96ptBlackItalic.ufo
<glyph name="equal" format="2">
  <advance width="1119"/>
  <unicode hex="003D"/>
  <outline>
    <contour>
      <point x="204.333" y="919" type="line"/>
      <point x="1084.331" y="919" type="line"/>
      <point x="1084.331" y="923" type="line"/>
      <point x="204.333" y="923" type="line"/>
    </contour>
    <contour>
      <point x="204.333" y="618" type="line"/>
      <point x="1084.331" y="618" type="line"/>
      <point x="1084.331" y="622" type="line"/>
      <point x="204.333" y="622" type="line"/>
    </contour>
  </outline>
</glyph>
<glyph name="B" format="2">
  <advance width="1479"/>
  <unicode hex="0042"/>
  <anchor x="506" y="0" name="bottom"/>
  <anchor x="804" y="1500" name="top"/>
  <outline>
    <contour>
      <point x="-100" y="0" type="line"/>
      <point x="640" y="0" type="line" smooth="yes"/>
      <point x="1002" y="0"/>
      <point x="1380" y="140"/>
      <point x="1380" y="440" type="curve" smooth="yes"/>
      <point x="1380" y="683"/>
      <point x="1131" y="762"/>
      <point x="868" y="771" type="curve"/>
      <point x="1169" y="791"/>
      <point x="1490" y="915"/>
      <point x="1490" y="1170" type="curve" smooth="yes"/>
      <point x="1490" y="1410"/>
      <point x="1292" y="1500"/>
      <point x="930" y="1500" type="curve" smooth="yes"/>
      <point x="250" y="1500" type="line"/>
      <point x="250" y="1496" type="line"/>
      <point x="429" y="1496" type="line"/>
      <point x="81" y="4" type="line"/>
      <point x="-100" y="4" type="line"/>
    </contour>
    <contour>
      <point x="511" y="4" type="line"/>
      <point x="859" y="1496" type="line"/>
      <point x="920" y="1496" type="line" smooth="yes"/>
      <point x="1012" y="1496"/>
      <point x="1050" y="1388"/>
      <point x="1050" y="1270" type="curve" smooth="yes"/>
      <point x="1050" y="1012"/>
      <point x="932" y="772"/>
      <point x="780" y="772" type="curve" smooth="yes"/>
      <point x="619" y="772" type="line"/>
      <point x="618" y="768" type="line"/>
      <point x="752" y="768" type="line" smooth="yes"/>
      <point x="864" y="768"/>
      <point x="920" y="698"/>
      <point x="920" y="520" type="curve" smooth="yes"/>
      <point x="920" y="222"/>
      <point x="782" y="4"/>
      <point x="640" y="4" type="curve" smooth="yes"/>
    </contour>
  </outline>
</glyph>
<glyph name="E" format="2">
  <advance width="1317"/>
  <unicode hex="0045"/>
  <anchor x="586" y="0" name="bottom"/>
  <anchor x="996" y="0" name="ogonek"/>
  <anchor x="904" y="1500" name="top"/>
  <outline>
    <contour>
      <point x="70" y="0" type="line"/>
      <point x="500" y="0" type="line"/>
      <point x="848" y="1500" type="line"/>
      <point x="418" y="1500" type="line"/>
    </contour>
    <contour>
      <point x="-100" y="0" type="line"/>
      <point x="1140" y="0" type="line"/>
      <point x="1244" y="450" type="line"/>
      <point x="1240" y="450" type="line"/>
      <point x="1122" y="196"/>
      <point x="904" y="4"/>
      <point x="630" y="4" type="curve" smooth="yes"/>
      <point x="-100" y="4" type="line"/>
    </contour>
    <contour>
      <point x="950" y="496" type="curve"/>
      <point x="954" y="496" type="line"/>
      <point x="1082" y="1046" type="line"/>
      <point x="1078" y="1046" type="line"/>
      <point x="988" y="912"/>
      <point x="830" y="778"/>
      <point x="716" y="778" type="curve" smooth="yes"/>
      <point x="594" y="778" type="line"/>
      <point x="594" y="774" type="line"/>
      <point x="716" y="774" type="line" smooth="yes"/>
      <point x="830" y="774"/>
      <point x="920" y="630"/>
    </contour>
    <contour>
      <point x="1368" y="1090" type="curve"/>
      <point x="1372" y="1090" type="line"/>
      <point x="1468" y="1500" type="line"/>
      <point x="238" y="1500" type="line"/>
      <point x="238" y="1496" type="line"/>
      <point x="978" y="1496" type="line" smooth="yes"/>
      <point x="1212" y="1496"/>
      <point x="1358" y="1304"/>
    </contour>
  </outline>
</glyph>
<glyph name="I" format="2">
  <advance width="929"/>
  <unicode hex="0049"/>
  <anchor x="348" y="0" name="bottom"/>
  <anchor x="348" y="0" name="ogonek"/>
  <anchor x="682" y="1500" name="top"/>
  <outline>
    <contour>
      <point x="130" y="0" type="line"/>
      <point x="560" y="0" type="line"/>
      <point x="900" y="1500" type="line"/>
      <point x="470" y="1500" type="line"/>
    </contour>
    <contour>
      <point x="-90" y="0" type="line"/>
      <point x="790" y="0" type="line"/>
      <point x="790" y="4" type="line"/>
      <point x="-90" y="4" type="line"/>
    </contour>
    <contour>
      <point x="240" y="1496" type="line"/>
      <point x="1120" y="1496" type="line"/>
      <point x="1120" y="1500" type="line"/>
      <point x="240" y="1500" type="line"/>
    </contour>
  </outline>
</glyph>
<glyph name="X" format="2">
  <advance width="1659"/>
  <unicode hex="0058"/>
  <anchor x="596" y="0" name="bottom"/>
  <anchor x="1146" y="1500" name="top"/>
  <outline>
    <contour>
      <point x="942" y="0" type="line"/>
      <point x="1412" y="0" type="line"/>
      <point x="902" y="1500" type="line"/>
      <point x="440" y="1500" type="line"/>
    </contour>
    <contour>
      <point x="-110" y="0" type="line"/>
      <point x="370" y="0" type="line"/>
      <point x="370" y="4" type="line"/>
      <point x="-110" y="4" type="line"/>
    </contour>
    <contour>
      <point x="96" y="0" type="line"/>
      <point x="102" y="0" type="line"/>
      <point x="886" y="834" type="line"/>
      <point x="880" y="834" type="line"/>
    </contour>
    <contour>
      <point x="750" y="0" type="line"/>
      <point x="1550" y="0" type="line"/>
      <point x="1550" y="4" type="line"/>
      <point x="750" y="4" type="line"/>
    </contour>
    <contour>
      <point x="300" y="1496" type="line"/>
      <point x="1100" y="1496" type="line"/>
      <point x="1100" y="1500" type="line"/>
      <point x="300" y="1500" type="line"/>
    </contour>
    <contour>
      <point x="902" y="754" type="line"/>
      <point x="910" y="754" type="line"/>
      <point x="1572" y="1496" type="line"/>
      <point x="1566" y="1496" type="line"/>
    </contour>
    <contour>
      <point x="1340" y="1496" type="line"/>
      <point x="1780" y="1496" type="line"/>
      <point x="1780" y="1500" type="line"/>
      <point x="1340" y="1500" type="line"/>
    </contour>
  </outline>
</glyph>
<glyph name="bracketright" format="2">
  <advance width="789"/>
  <unicode hex="005D"/>
  <outline>
    <contour>
      <point x="-192" y="-300" type="line"/>
      <point x="428" y="-300" type="line"/>
      <point x="848" y="1560" type="line"/>
      <point x="228" y="1560" type="line"/>
      <point x="228" y="1556" type="line"/>
      <point x="466" y="1556" type="line"/>
      <point x="50" y="-296" type="line"/>
      <point x="-192" y="-296" type="line"/>
    </contour>
  </outline>
</glyph>
<glyph name="l" format="2">
  <advance width="617"/>
  <unicode hex="006C"/>
  <anchor x="244" y="0" name="bottom"/>
  <anchor x="246" y="0" name="cedilla"/>
  <anchor x="498" y="1500" name="top"/>
  <anchor x="693" y="920" name="topright"/>
  <outline>
    <contour>
      <point x="245" y="-20" type="curve" smooth="yes"/>
      <point x="428" y="-20"/>
      <point x="516" y="119"/>
      <point x="617" y="329" type="curve"/>
      <point x="613" y="330" type="line"/>
      <point x="482" y="46"/>
      <point x="391" y="27"/>
      <point x="376" y="27" type="curve" smooth="yes"/>
      <point x="368" y="27"/>
      <point x="363" y="32"/>
      <point x="363" y="42" type="curve" smooth="yes"/>
      <point x="363" y="51"/>
      <point x="364" y="60"/>
      <point x="367" y="71" type="curve" smooth="yes"/>
      <point x="754" y="1500" type="line"/>
      <point x="261" y="1500" type="line"/>
      <point x="261" y="1496" type="line"/>
      <point x="395" y="1496" type="line"/>
      <point x="61" y="260" type="line" smooth="yes"/>
      <point x="55" y="238"/>
      <point x="40" y="184"/>
      <point x="40" y="134" type="curve" smooth="yes"/>
      <point x="40" y="38"/>
      <point x="91" y="-20"/>
    </contour>
  </outline>
</glyph>
<glyph name="r" format="2">
  <advance width="998"/>
  <unicode hex="0072"/>
  <anchor x="176" y="0" name="bottom"/>
  <anchor x="176" y="0" name="cedilla"/>
  <anchor x="643" y="920" name="top"/>
  <outline>
    <contour>
      <point x="0" y="0" type="line"/>
      <point x="358" y="0" type="line"/>
      <point x="588" y="920" type="line"/>
      <point x="70" y="920" type="line"/>
      <point x="70" y="916" type="line"/>
      <point x="238" y="916" type="line"/>
    </contour>
    <contour>
      <point x="420" y="266" type="curve"/>
      <point x="424" y="266" type="line"/>
      <point x="484" y="502"/>
      <point x="601" y="935"/>
      <point x="833" y="935" type="curve" smooth="yes"/>
      <point x="952" y="935"/>
      <point x="1044" y="859"/>
      <point x="1044" y="737" type="curve"/>
      <point x="1046" y="737" type="line"/>
      <point x="1046" y="847"/>
      <point x="955" y="905"/>
      <point x="848" y="905" type="curve" smooth="yes"/>
      <point x="741" y="905"/>
      <point x="649" y="830"/>
      <point x="649" y="717" type="curve" smooth="yes"/>
      <point x="649" y="607"/>
      <point x="735" y="530"/>
      <point x="845" y="530" type="curve" smooth="yes"/>
      <point x="961" y="530"/>
      <point x="1048" y="619"/>
      <point x="1048" y="737" type="curve" smooth="yes"/>
      <point x="1048" y="861"/>
      <point x="954" y="939"/>
      <point x="833" y="939" type="curve" smooth="yes"/>
      <point x="596" y="939"/>
      <point x="480" y="507"/>
    </contour>
  </outline>
</glyph>
<glyph name="s" format="2">
  <advance width="974"/>
  <unicode hex="0073"/>
  <anchor x="398" y="0" name="bottom"/>
  <anchor x="577" y="920" name="top"/>
  <outline>
    <contour>
      <point x="411" y="-20" type="curve" smooth="yes"/>
      <point x="704" y="-20"/>
      <point x="884" y="96"/>
      <point x="884" y="264" type="curve" smooth="yes"/>
      <point x="884" y="520"/>
      <point x="449" y="557"/>
      <point x="449" y="767" type="curve" smooth="yes"/>
      <point x="449" y="834"/>
      <point x="506" y="938"/>
      <point x="618" y="938" type="curve" smooth="yes"/>
      <point x="806" y="938"/>
      <point x="930" y="841"/>
      <point x="930" y="721" type="curve"/>
      <point x="932" y="721" type="line"/>
      <point x="932" y="821"/>
      <point x="844" y="887"/>
      <point x="744" y="887" type="curve" smooth="yes"/>
      <point x="638.982" y="887"/>
      <point x="570" y="819"/>
      <point x="570" y="733" type="curve" smooth="yes"/>
      <point x="570" y="628"/>
      <point x="665" y="557"/>
      <point x="764" y="557" type="curve" smooth="yes"/>
      <point x="851" y="557"/>
      <point x="934" y="619"/>
      <point x="934" y="721" type="curve" smooth="yes"/>
      <point x="934" y="825"/>
      <point x="844" y="948"/>
      <point x="568" y="948" type="curve" smooth="yes"/>
      <point x="302" y="948"/>
      <point x="142" y="812"/>
      <point x="142" y="654" type="curve" smooth="yes"/>
      <point x="142" y="422"/>
      <point x="546" y="380"/>
      <point x="546" y="176" type="curve" smooth="yes"/>
      <point x="546" y="94"/>
      <point x="471" y="-12"/>
      <point x="370" y="-12" type="curve" smooth="yes"/>
      <point x="179" y="-12"/>
      <point x="4" y="77"/>
      <point x="4" y="235" type="curve"/>
      <point x="2" y="235" type="line"/>
      <point x="2" y="135"/>
      <point x="87.384" y="74"/>
      <point x="190" y="74" type="curve" smooth="yes"/>
      <point x="290" y="74"/>
      <point x="373" y="132"/>
      <point x="373" y="243" type="curve" smooth="yes"/>
      <point x="373" y="352"/>
      <point x="295" y="419"/>
      <point x="190" y="419" type="curve" smooth="yes"/>
      <point x="77" y="419"/>
      <point x="0" y="336"/>
      <point x="0" y="235" type="curve" smooth="yes"/>
      <point x="0" y="86"/>
      <point x="153" y="-20"/>
    </contour>
  </outline>
</glyph>
<glyph name="t" format="2">
  <advance width="744"/>
  <unicode hex="0074"/>
  <anchor x="296" y="0" name="bottom"/>
  <anchor x="483" y="1120" name="top"/>
  <anchor x="677" y="1020" name="topright"/>
  <outline>
    <contour>
      <point x="294" y="-20" type="curve" smooth="yes"/>
      <point x="497" y="-20"/>
      <point x="585" y="84"/>
      <point x="690" y="326" type="curve"/>
      <point x="686" y="327" type="line"/>
      <point x="556" y="11"/>
      <point x="428" y="7"/>
      <point x="405" y="7" type="curve" smooth="yes"/>
      <point x="393" y="7"/>
      <point x="384" y="13"/>
      <point x="384" y="31" type="curve" smooth="yes"/>
      <point x="384" y="49"/>
      <point x="389.141" y="67.484"/>
      <point x="393" y="82" type="curve" smooth="yes"/>
      <point x="669" y="1120" type="line"/>
      <point x="309" y="1120" type="line"/>
      <point x="88" y="270" type="line" smooth="yes"/>
      <point x="77.557" y="229.835"/>
      <point x="60" y="178"/>
      <point x="60" y="137" type="curve" smooth="yes"/>
      <point x="60" y="58"/>
      <point x="110" y="-20"/>
    </contour>
    <contour>
      <point x="64" y="916" type="line"/>
      <point x="804" y="916" type="line"/>
      <point x="804" y="920" type="line"/>
      <point x="64" y="920" type="line"/>
    </contour>
  </outline>
</glyph>
<glyph name="u" format="2">
  <advance width="1176"/>
  <unicode hex="0075"/>
  <anchor x="456" y="0" name="bottom"/>
  <anchor x="891" y="0" name="ogonek"/>
  <anchor x="696" y="920" name="top"/>
  <outline>
    <contour>
      <point x="248" y="-20" type="curve" smooth="yes"/>
      <point x="455" y="-20"/>
      <point x="639" y="350"/>
      <point x="724" y="653" type="curve"/>
      <point x="719" y="653" type="line"/>
      <point x="622" y="296"/>
      <point x="452" y="78"/>
      <point x="416" y="78" type="curve" smooth="yes"/>
      <point x="394" y="78"/>
      <point x="388.021" y="106.994"/>
      <point x="431" y="263" type="curve" smooth="yes"/>
      <point x="612" y="920" type="line"/>
      <point x="121" y="920" type="line"/>
      <point x="121" y="916" type="line"/>
      <point x="244" y="916" type="line"/>
      <point x="73" y="282" type="line" smooth="yes"/>
      <point x="24" y="99"/>
      <point x="95" y="-20"/>
    </contour>
    <contour>
      <point x="804" y="-20" type="curve" smooth="yes"/>
      <point x="987" y="-20"/>
      <point x="1075" y="119"/>
      <point x="1176" y="329" type="curve"/>
      <point x="1172" y="330" type="line"/>
      <point x="1041" y="46"/>
      <point x="950" y="27"/>
      <point x="935" y="27" type="curve" smooth="yes"/>
      <point x="926" y="27"/>
      <point x="922" y="33"/>
      <point x="922" y="42" type="curve" smooth="yes"/>
      <point x="922" y="50"/>
      <point x="922.542" y="58.123"/>
      <point x="926" y="71" type="curve" smooth="yes"/>
      <point x="1154" y="920" type="line"/>
      <point x="789" y="920" type="line"/>
      <point x="604" y="220" type="line" smooth="yes"/>
      <point x="597.927" y="197.019"/>
      <point x="593" y="166"/>
      <point x="593" y="140" type="curve" smooth="yes"/>
      <point x="593" y="37"/>
      <point x="650" y="-20"/>
    </contour>
  </outline>
</glyph>
<glyph name="y" format="2">
  <advance width="1371"/>
  <unicode hex="0079"/>
  <anchor x="476" y="-500" name="bottom"/>
  <anchor x="706" y="920" name="top"/>
  <outline>
    <contour>
      <point x="281" y="-520" type="curve" smooth="yes"/>
      <point x="741" y="-520"/>
      <point x="1342" y="462"/>
      <point x="1342" y="722" type="curve" smooth="yes"/>
      <point x="1342" y="824"/>
      <point x="1268" y="939"/>
      <point x="1116" y="939" type="curve" smooth="yes"/>
      <point x="1002" y="939"/>
      <point x="912" y="857"/>
      <point x="912" y="746" type="curve" smooth="yes"/>
      <point x="912" y="626"/>
      <point x="1008" y="552"/>
      <point x="1128" y="552" type="curve" smooth="yes"/>
      <point x="1236" y="552"/>
      <point x="1340" y="629"/>
      <point x="1340" y="736" type="curve" smooth="yes"/>
      <point x="1340" y="832"/>
      <point x="1250" y="937"/>
      <point x="1116" y="937" type="curve"/>
      <point x="1116" y="935" type="line"/>
      <point x="1261" y="935"/>
      <point x="1338" y="824"/>
      <point x="1338" y="722" type="curve" smooth="yes"/>
      <point x="1338" y="456"/>
      <point x="729" y="-516"/>
      <point x="281" y="-516" type="curve" smooth="yes"/>
      <point x="110" y="-516"/>
      <point x="-3" y="-379"/>
      <point x="-3" y="-222" type="curve"/>
      <point x="-5" y="-222" type="line"/>
      <point x="-5" y="-312"/>
      <point x="85" y="-387"/>
      <point x="197" y="-387" type="curve" smooth="yes"/>
      <point x="307" y="-387"/>
      <point x="388" y="-303"/>
      <point x="388" y="-197" type="curve" smooth="yes"/>
      <point x="388" y="-81"/>
      <point x="286" y="-10"/>
      <point x="196" y="-10" type="curve" smooth="yes"/>
      <point x="80" y="-10"/>
      <point x="-7" y="-116"/>
      <point x="-7" y="-222" type="curve" smooth="yes"/>
      <point x="-7" y="-382"/>
      <point x="107" y="-520"/>
    </contour>
    <contour>
      <point x="705" y="-304" type="curve"/>
      <point x="840" y="-175"/>
      <point x="898" y="-106"/>
      <point x="985" y="10" type="curve"/>
      <point x="855" y="203"/>
      <point x="761" y="550"/>
      <point x="708" y="731" type="curve" smooth="yes"/>
      <point x="671.097" y="857.028"/>
      <point x="597" y="939"/>
      <point x="404" y="939" type="curve" smooth="yes"/>
      <point x="260" y="939"/>
      <point x="103" y="873"/>
      <point x="37" y="693" type="curve"/>
      <point x="41" y="691" type="line"/>
      <point x="90" y="825"/>
      <point x="187" y="880"/>
      <point x="228" y="880" type="curve" smooth="yes"/>
      <point x="270" y="880"/>
      <point x="283" y="830"/>
      <point x="291" y="809" type="curve" smooth="yes"/>
      <point x="346.208" y="664.079"/>
      <point x="559" y="-52"/>
    </contour>
  </outline>
</glyph>
<glyph name="copyright" format="2">
  <advance width="1739"/>
  <unicode hex="00A9"/>
  <anchor x="835.6" y="300" name="_top"/>
  <anchor x="835.6" y="300" name="ogonek"/>
  <anchor x="1027.6" y="1200.6" name="top"/>
  <outline>
    <contour>
      <point x="840" y="-20" type="curve" smooth="yes"/>
      <point x="1306" y="-20"/>
      <point x="1750" y="424"/>
      <point x="1750" y="890" type="curve" smooth="yes"/>
      <point x="1750" y="1276"/>
      <point x="1466" y="1520"/>
      <point x="1080" y="1520" type="curve" smooth="yes"/>
      <point x="614" y="1520"/>
      <point x="170" y="1076"/>
      <point x="170" y="610" type="curve" smooth="yes"/>
      <point x="170" y="224"/>
      <point x="454" y="-20"/>
    </contour>
    <contour>
      <point x="1177.6" y="300" type="line"/>
      <point x="1180" y="300" type="line"/>
      <point x="1246" y="582" type="line"/>
      <point x="1243.6" y="582" type="line"/>
      <point x="1214.8" y="537.6" type="line"/>
      <point x="1165" y="468.6"/>
      <point x="1116.4" y="415.2"/>
      <point x="1068.4" y="375.6" type="curve"/>
    </contour>
    <contour>
      <point x="850" y="288" type="curve" smooth="yes"/>
      <point x="1021.6" y="288"/>
      <point x="1150" y="434.4"/>
      <point x="1246" y="582" type="curve"/>
      <point x="1243.6" y="582" type="line"/>
      <point x="1135.6" y="417.6"/>
      <point x="1008.4" y="297.6"/>
      <point x="883.6" y="297.6" type="curve" smooth="yes"/>
      <point x="758.8" y="297.6"/>
      <point x="748" y="399.6"/>
      <point x="748" y="510" type="curve" smooth="yes"/>
      <point x="748" y="728.4"/>
      <point x="857.2" y="1200"/>
      <point x="1078" y="1200" type="curve" smooth="yes"/>
      <point x="1154.8" y="1200"/>
      <point x="1270" y="1129.2"/>
      <point x="1309.6" y="918" type="curve"/>
      <point x="1312" y="918" type="line"/>
      <point x="1278.4" y="1089.6"/>
      <point x="1195.6" y="1212"/>
      <point x="1030" y="1212" type="curve" smooth="yes"/>
      <point x="726.4" y="1212"/>
      <point x="484" y="933.6"/>
      <point x="484" y="606" type="curve" smooth="yes"/>
      <point x="484" y="410.4"/>
      <point x="630.4" y="288"/>
    </contour>
    <contour>
      <point x="840" y="-16" type="curve" smooth="yes"/>
      <point x="456" y="-16"/>
      <point x="174" y="226"/>
      <point x="174" y="610" type="curve" smooth="yes"/>
      <point x="174" y="1074"/>
      <point x="618" y="1516"/>
      <point x="1080" y="1516" type="curve" smooth="yes"/>
      <point x="1464" y="1516"/>
      <point x="1746" y="1274"/>
      <point x="1746" y="890" type="curve" smooth="yes"/>
      <point x="1746" y="426"/>
      <point x="1302" y="-16"/>
    </contour>
    <contour>
      <point x="1309.6" y="918" type="line"/>
      <point x="1312" y="918" type="line"/>
      <point x="1375.6" y="1200" type="line"/>
      <point x="1373.2" y="1200" type="line"/>
      <point x="1226.8" y="1118.4" type="line"/>
      <point x="1261.6" y="1076.4"/>
      <point x="1279.6" y="1033.2"/>
      <point x="1301.2" y="963.6" type="curve"/>
    </contour>
  </outline>
</glyph>
<glyph name="twosuperior" format="2">
  <advance width="939"/>
  <unicode hex="00B2"/>
  <outline>
    <contour>
      <point x="354" y="914" type="line"/>
      <point x="1042.8" y="914" type="line"/>
      <point x="1123.2" y="1256" type="line"/>
      <point x="1120.8" y="1256" type="line"/>
      <point x="1098.6" y="1166" type="line"/>
      <point x="543.6" y="1166" type="line"/>
      <point x="750.6" y="1292.6" type="line" smooth="yes"/>
      <point x="870.6" y="1366.4"/>
      <point x="1177.8" y="1478.6"/>
      <point x="1177.8" y="1640.6" type="curve" smooth="yes"/>
      <point x="1177.8" y="1766.6"/>
      <point x="1051.2" y="1826"/>
      <point x="906" y="1826" type="curve" smooth="yes"/>
      <point x="696.6" y="1826"/>
      <point x="517.2" y="1692.8"/>
      <point x="517.2" y="1552.4" type="curve" smooth="yes"/>
      <point x="517.2" y="1460"/>
      <point x="582" y="1408.4"/>
      <point x="654" y="1408.4" type="curve" smooth="yes"/>
      <point x="738" y="1408.4"/>
      <point x="799.2" y="1473.2"/>
      <point x="799.2" y="1551.2" type="curve" smooth="yes"/>
      <point x="799.2" y="1629.2"/>
      <point x="742.2" y="1672.4"/>
      <point x="664.8" y="1672.4" type="curve" smooth="yes"/>
      <point x="595.2" y="1672.4"/>
      <point x="518.4" y="1612.4"/>
      <point x="518.4" y="1552.4" type="curve"/>
      <point x="519.6" y="1552.4" type="line"/>
      <point x="519.6" y="1701.2"/>
      <point x="715.2" y="1809.8"/>
      <point x="816" y="1809.8" type="curve" smooth="yes"/>
      <point x="901.2" y="1809.8"/>
      <point x="912" y="1719.8"/>
      <point x="912" y="1640" type="curve" smooth="yes"/>
      <point x="912" y="1509.2"/>
      <point x="832.8" y="1346"/>
      <point x="688.2" y="1257.2" type="curve" smooth="yes"/>
      <point x="393.6" y="1076" type="line"/>
    </contour>
  </outline>
</glyph>
<glyph name="micro" format="2">
  <advance width="1176"/>
  <unicode hex="00B5"/>
  <anchor x="456" y="0" name="bottom"/>
  <anchor x="792" y="0" name="ogonek"/>
  <anchor x="696" y="920" name="top"/>
  <outline>
    <contour>
      <point x="1172" y="330" type="line"/>
      <point x="1041" y="46"/>
      <point x="950" y="27"/>
      <point x="935" y="27" type="curve" smooth="yes"/>
      <point x="926" y="27"/>
      <point x="922" y="33"/>
      <point x="922" y="42" type="curve" smooth="yes"/>
      <point x="922" y="50"/>
      <point x="923" y="58"/>
      <point x="926" y="71" type="curve" smooth="yes"/>
      <point x="1154" y="920" type="line"/>
      <point x="789" y="920" type="line"/>
      <point x="710" y="620" type="line" smooth="yes"/>
      <point x="612" y="283"/>
      <point x="451" y="78"/>
      <point x="416" y="78" type="curve" smooth="yes"/>
      <point x="394" y="78"/>
      <point x="388" y="107"/>
      <point x="431" y="263" type="curve" smooth="yes"/>
      <point x="612" y="920" type="line"/>
      <point x="121" y="920" type="line"/>
      <point x="121" y="916" type="line"/>
      <point x="244" y="916" type="line"/>
      <point x="-69" y="-242" type="line" smooth="yes"/>
      <point x="-125" y="-449"/>
      <point x="40" y="-520"/>
      <point x="211" y="-520" type="curve" smooth="yes"/>
      <point x="357" y="-520"/>
      <point x="418" y="-438"/>
      <point x="418" y="-330" type="curve" smooth="yes"/>
      <point x="418" y="-224"/>
      <point x="341" y="-146"/>
      <point x="235" y="-146" type="curve" smooth="yes"/>
      <point x="129" y="-146"/>
      <point x="52" y="-226"/>
      <point x="52" y="-322" type="curve" smooth="yes"/>
      <point x="52" y="-430"/>
      <point x="125" y="-505"/>
      <point x="200" y="-516" type="curve"/>
      <point x="35" y="-511"/>
      <point x="-119" y="-442"/>
      <point x="-65" y="-242" type="curve" smooth="yes"/>
      <point x="64" y="233" type="line"/>
      <point x="42" y="77"/>
      <point x="109" y="-20"/>
      <point x="248" y="-20" type="curve" smooth="yes"/>
      <point x="430" y="-20"/>
      <point x="593" y="265"/>
      <point x="688" y="539" type="curve"/>
      <point x="604" y="220" type="line" smooth="yes"/>
      <point x="598" y="197"/>
      <point x="593" y="166"/>
      <point x="593" y="140" type="curve" smooth="yes"/>
      <point x="593" y="37"/>
      <point x="650" y="-20"/>
      <point x="804" y="-20" type="curve" smooth="yes"/>
      <point x="987" y="-20"/>
      <point x="1075" y="119"/>
      <point x="1176" y="329" type="curve"/>
    </contour>
  </outline>
</glyph>
<glyph name="ordmasculine" format="2">
  <advance width="1128"/>
  <unicode hex="00BA"/>
  <anchor x="700" y="962" name="bottom"/>
  <anchor x="864.4" y="1514" name="top"/>
  <outline>
    <contour>
      <point x="698.2" y="950" type="curve" smooth="yes"/>
      <point x="927.4" y="950"/>
      <point x="1097.8" y="1148"/>
      <point x="1097.8" y="1334" type="curve" smooth="yes"/>
      <point x="1097.8" y="1466"/>
      <point x="1004.8" y="1526"/>
      <point x="865.6" y="1526" type="curve" smooth="yes"/>
      <point x="654.4" y="1526"/>
      <point x="472" y="1327.4"/>
      <point x="472" y="1135.4" type="curve" smooth="yes"/>
      <point x="472" y="1003.4"/>
      <point x="559" y="950"/>
    </contour>
    <contour>
      <point x="692.2" y="952.4" type="curve" smooth="yes"/>
      <point x="679" y="952.4"/>
      <point x="674.8" y="965.6"/>
      <point x="674.8" y="988.4" type="curve" smooth="yes"/>
      <point x="674.8" y="1131.2"/>
      <point x="806.8" y="1523.6"/>
      <point x="871.6" y="1523.6" type="curve" smooth="yes"/>
      <point x="884.8" y="1523.6"/>
      <point x="889" y="1510.4"/>
      <point x="889" y="1487.6" type="curve" smooth="yes"/>
      <point x="889" y="1344.8"/>
      <point x="757" y="952.4"/>
    </contour>
  </outline>
</glyph>
<glyph name="threequarters" format="2">
  <advance width="1401"/>
  <unicode hex="00BE"/>
  <outline>
    <contour>
      <point x="86" y="-200" type="line"/>
      <point x="90" y="-200" type="line"/>
      <point x="1392" y="1300" type="line"/>
      <point x="1388" y="1300" type="line"/>
    </contour>
    <contour>
      <point x="858" y="-206" type="line"/>
      <point x="1320" y="-206" type="line"/>
      <point x="1320" y="-203.6" type="line"/>
      <point x="858" y="-203.6" type="line"/>
    </contour>
    <contour>
      <point x="960" y="-206" type="line"/>
      <point x="1218" y="-206" type="line"/>
      <point x="1459.2" y="694" type="line"/>
      <point x="1255.2" y="694" type="line"/>
      <point x="666" y="50.8" type="line"/>
      <point x="1410" y="50.8" type="line"/>
      <point x="1410" y="53.2" type="line"/>
      <point x="672" y="53.2" type="line"/>
      <point x="1156.8" y="582.4" type="line"/>
    </contour>
    <contour>
      <point x="435.2" y="696" type="curve" smooth="yes"/>
      <point x="634.4" y="696"/>
      <point x="867.2" y="788.4"/>
      <point x="867.2" y="986.4" type="curve" smooth="yes"/>
      <point x="867.2" y="1119"/>
      <point x="732.8" y="1195.2"/>
      <point x="473.6" y="1195.2" type="curve"/>
      <point x="473.6" y="1193.4" type="line"/>
      <point x="604.4" y="1193.4"/>
      <point x="614" y="1114.8"/>
      <point x="614" y="1026" type="curve" smooth="yes"/>
      <point x="614" y="895.2"/>
      <point x="566" y="705"/>
      <point x="411.2" y="705" type="curve" smooth="yes"/>
      <point x="263.6" y="705"/>
      <point x="172.4" y="826.8"/>
      <point x="172.4" y="928.8" type="curve"/>
      <point x="171.2" y="928.8" type="line"/>
      <point x="171.2" y="868.8"/>
      <point x="233.6" y="816"/>
      <point x="298.4" y="816" type="curve" smooth="yes"/>
      <point x="363.8" y="816"/>
      <point x="426.2" y="870.6"/>
      <point x="426.2" y="939" type="curve" smooth="yes"/>
      <point x="426.2" y="1012.2"/>
      <point x="368.6" y="1065.6"/>
      <point x="302" y="1065.6" type="curve" smooth="yes"/>
      <point x="230" y="1065.6"/>
      <point x="170" y="1008"/>
      <point x="170" y="928.8" type="curve" smooth="yes"/>
      <point x="170" y="823.8"/>
      <point x="264.8" y="696"/>
    </contour>
    <contour>
      <point x="473.6" y="1194" type="line"/>
      <point x="750.8" y="1194"/>
      <point x="939.2" y="1315.2"/>
      <point x="939.2" y="1435.2" type="curve" smooth="yes"/>
      <point x="939.2" y="1567.8"/>
      <point x="755" y="1618.8"/>
      <point x="621.2" y="1618.8" type="curve" smooth="yes"/>
      <point x="498.8" y="1618.8"/>
      <point x="337.4" y="1551"/>
      <point x="337.4" y="1428" type="curve" smooth="yes"/>
      <point x="337.4" y="1348.8"/>
      <point x="400.4" y="1293.6"/>
      <point x="467" y="1293.6" type="curve" smooth="yes"/>
      <point x="527" y="1293.6"/>
      <point x="594.8" y="1342.2"/>
      <point x="594.8" y="1420.2" type="curve" smooth="yes"/>
      <point x="594.8" y="1492.2"/>
      <point x="532.4" y="1543.8"/>
      <point x="467" y="1543.8" type="curve" smooth="yes"/>
      <point x="406.4" y="1543.8"/>
      <point x="338.6" y="1494"/>
      <point x="338.6" y="1428" type="curve"/>
      <point x="339.8" y="1428" type="line"/>
      <point x="339.8" y="1554"/>
      <point x="505.4" y="1611"/>
      <point x="585.2" y="1611" type="curve" smooth="yes"/>
      <point x="668" y="1611"/>
      <point x="686" y="1542"/>
      <point x="686" y="1465.2" type="curve" smooth="yes"/>
      <point x="686" y="1388.4"/>
      <point x="646.4" y="1195.8"/>
      <point x="473.6" y="1195.8" type="curve"/>
    </contour>
  </outline>
</glyph>
<glyph name="questiondown" format="2">
  <advance width="1259"/>
  <unicode hex="00BF"/>
  <outline>
    <contour>
      <point x="528" y="-480" type="curve" smooth="yes"/>
      <point x="823" y="-480"/>
      <point x="1050" y="-276"/>
      <point x="1050" y="-92" type="curve" smooth="yes"/>
      <point x="1050" y="30"/>
      <point x="957" y="121"/>
      <point x="846" y="121" type="curve" smooth="yes"/>
      <point x="746" y="121"/>
      <point x="642" y="40"/>
      <point x="642" y="-80" type="curve" smooth="yes"/>
      <point x="642" y="-190"/>
      <point x="737" y="-279"/>
      <point x="846" y="-279" type="curve" smooth="yes"/>
      <point x="953" y="-279"/>
      <point x="1048" y="-192"/>
      <point x="1048" y="-92" type="curve"/>
      <point x="1046" y="-92" type="line"/>
      <point x="1046" y="-302"/>
      <point x="776" y="-467"/>
      <point x="598" y="-467" type="curve" smooth="yes"/>
      <point x="480" y="-467"/>
      <point x="442" y="-368"/>
      <point x="442" y="-240" type="curve" smooth="yes"/>
      <point x="442" y="-4"/>
      <point x="518" y="234"/>
      <point x="732" y="296" type="curve"/>
      <point x="768" y="482" type="line"/>
      <point x="764" y="482" type="line"/>
      <point x="729" y="299" type="line"/>
      <point x="447" y="281"/>
      <point x="20" y="200"/>
      <point x="20" y="-150" type="curve" smooth="yes"/>
      <point x="20" y="-390"/>
      <point x="306" y="-480"/>
    </contour>
    <contour>
      <point x="732" y="580" type="curve" smooth="yes"/>
      <point x="864" y="580"/>
      <point x="972" y="687"/>
      <point x="972" y="819" type="curve" smooth="yes"/>
      <point x="972" y="951"/>
      <point x="864" y="1060"/>
      <point x="732" y="1060" type="curve" smooth="yes"/>
      <point x="600" y="1060"/>
      <point x="491" y="951"/>
      <point x="491" y="819" type="curve" smooth="yes"/>
      <point x="491" y="687"/>
      <point x="600" y="580"/>
    </contour>
  </outline>
</glyph>
<glyph name="dcroat" format="2">
  <advance width="1227"/>
  <unicode hex="0111"/>
  <outline>
    <contour>
      <point x="595.587" y="1138" type="line"/>
      <point x="1308.611" y="1138" type="line"/>
      <point x="1308.611" y="1142" type="line"/>
      <point x="595.587" y="1142" type="line"/>
    </contour>
    <component base="d"/>
  </outline>
</glyph>
<glyph name="Hbar" format="2">
  <advance width="1669"/>
  <unicode hex="0126"/>
  <outline>
    <contour>
      <point x="200.167" y="1109.055" type="line"/>
      <point x="1738" y="1109.055" type="line"/>
      <point x="1738" y="1112.943" type="line"/>
      <point x="200.167" y="1112.943" type="line"/>
    </contour>
    <component base="H"/>
  </outline>
</glyph>
<glyph name="hbar" format="2">
  <advance width="1236"/>
  <unicode hex="0127"/>
  <outline>
    <contour>
      <point x="191.969" y="1188" type="line"/>
      <point x="866" y="1188" type="line"/>
      <point x="866" y="1192" type="line"/>
      <point x="191.969" y="1192" type="line"/>
    </contour>
    <component base="h"/>
  </outline>
</glyph>
<glyph name="jdotless" format="2">
  <advance width="673"/>
  <unicode hex="0237"/>
  <anchor x="138" y="-400" name="bottom"/>
  <anchor x="443" y="920" name="top"/>
  <outline>
    <contour>
      <point x="-119" y="-520" type="curve" smooth="yes"/>
      <point x="141" y="-520"/>
      <point x="428.939" y="-274.76"/>
      <point x="481" y="-23" type="curve" smooth="yes"/>
      <point x="676" y="920" type="line"/>
      <point x="102" y="920" type="line"/>
      <point x="102" y="916" type="line"/>
      <point x="292" y="916" type="line"/>
      <point x="92" y="40" type="line" smooth="yes"/>
      <point x="48.732" y="-205.647"/>
      <point x="50" y="-512"/>
      <point x="-130" y="-512" type="curve" smooth="yes"/>
      <point x="-290" y="-512"/>
      <point x="-466" y="-409"/>
      <point x="-466" y="-262" type="curve"/>
      <point x="-468" y="-262" type="line"/>
      <point x="-468" y="-375"/>
      <point x="-360" y="-440"/>
      <point x="-262" y="-440" type="curve" smooth="yes"/>
      <point x="-145" y="-440"/>
      <point x="-45" y="-347"/>
      <point x="-45" y="-246" type="curve" smooth="yes"/>
      <point x="-45" y="-126"/>
      <point x="-166" y="-58"/>
      <point x="-256" y="-58" type="curve" smooth="yes"/>
      <point x="-357" y="-58"/>
      <point x="-470" y="-140"/>
      <point x="-470" y="-262" type="curve" smooth="yes"/>
      <point x="-470" y="-415"/>
      <point x="-301" y="-520"/>
    </contour>
  </outline>
</glyph>
<glyph name="brevecomb" format="2">
  <unicode hex="0306"/>
  <anchor x="765" y="1500" name="_top"/>
  <outline>
    <contour>
      <point x="808" y="1682" type="curve" smooth="yes"/>
      <point x="1048" y="1682"/>
      <point x="1108" y="1938"/>
      <point x="1128" y="2060" type="curve"/>
      <point x="1124" y="2060" type="line"/>
      <point x="1092" y="1962"/>
      <point x="936" y="1952"/>
      <point x="828" y="1952" type="curve" smooth="yes"/>
      <point x="720" y="1952"/>
      <point x="602" y="1986"/>
      <point x="612" y="2060" type="curve"/>
      <point x="608" y="2060" type="line"/>
      <point x="588" y="1938"/>
      <point x="588" y="1682"/>
    </contour>
  </outline>
</glyph>
<glyph name="caroncomb" format="2">
  <unicode hex="030C"/>
  <anchor x="766" y="1500" name="_top"/>
  <outline>
    <contour>
      <point x="711" y="1700" type="line"/>
      <point x="921" y="1700" type="line"/>
      <point x="1245" y="2020" type="line"/>
      <point x="1243" y="2022" type="line"/>
      <point x="821" y="1890" type="line"/>
      <point x="477" y="2022" type="line"/>
      <point x="475" y="2020" type="line"/>
    </contour>
  </outline>
</glyph>
<glyph name="breveinvertedcomb" format="2">
  <unicode hex="0311"/>
  <anchor x="777" y="1500" name="_top"/>
  <outline>
    <contour>
      <point x="527" y="1698" type="curve"/>
      <point x="531" y="1698" type="line"/>
      <point x="563" y="1796"/>
      <point x="719" y="1806"/>
      <point x="827" y="1806" type="curve" smooth="yes"/>
      <point x="935" y="1806"/>
      <point x="1053" y="1772"/>
      <point x="1043" y="1698" type="curve"/>
      <point x="1047" y="1698" type="line"/>
      <point x="1067" y="1820"/>
      <point x="1067" y="2076"/>
      <point x="847" y="2076" type="curve" smooth="yes"/>
      <point x="607" y="2076"/>
      <point x="547" y="1820"/>
    </contour>
  </outline>
</glyph>
<glyph name="commaturnedabovecomb" format="2">
  <unicode hex="0312"/>
  <anchor x="629" y="920" name="_top"/>
  <outline>
    <contour>
      <point x="695" y="1118" type="curve" smooth="yes"/>
      <point x="803" y="1118"/>
      <point x="898" y="1213"/>
      <point x="898" y="1313" type="curve" smooth="yes"/>
      <point x="898" y="1418"/>
      <point x="819" y="1499"/>
      <point x="694" y="1499" type="curve" smooth="yes"/>
      <point x="607" y="1499"/>
      <point x="489" y="1449"/>
      <point x="489" y="1337" type="curve"/>
      <point x="491" y="1337" type="line"/>
      <point x="491" y="1598"/>
      <point x="765" y="1729"/>
      <point x="1014" y="1729" type="curve"/>
      <point x="1014" y="1733" type="line"/>
      <point x="766" y="1733"/>
      <point x="487" y="1601"/>
      <point x="487" y="1337" type="curve" smooth="yes"/>
      <point x="487" y="1205"/>
      <point x="584" y="1118"/>
    </contour>
  </outline>
</glyph>
<glyph name="trademark" format="2">
  <advance width="1233"/>
  <unicode hex="2122"/>
  <outline>
    <contour>
      <point x="998" y="968" type="line"/>
      <point x="1001" y="968" type="line"/>
      <point x="1305" y="1512" type="line"/>
      <point x="1191" y="976" type="line"/>
      <point x="1141" y="976" type="line"/>
      <point x="1141" y="975" type="line"/>
      <point x="1404" y="975" type="line"/>
      <point x="1404" y="976" type="line"/>
      <point x="1346" y="976" type="line"/>
      <point x="1461" y="1514" type="line"/>
      <point x="1504" y="1514" type="line"/>
      <point x="1504" y="1515" type="line"/>
      <point x="1306" y="1515" type="line"/>
      <point x="1122" y="1187" type="line"/>
      <point x="1068" y="1515" type="line"/>
      <point x="849" y="1515" type="line"/>
      <point x="849" y="1514" type="line"/>
      <point x="912" y="1514" type="line"/>
      <point x="796" y="976" type="line"/>
      <point x="748" y="976" type="line"/>
      <point x="748" y="975" type="line"/>
      <point x="865" y="975" type="line"/>
      <point x="865" y="976" type="line"/>
      <point x="797" y="976" type="line"/>
      <point x="913" y="1513" type="line"/>
    </contour>
    <contour>
      <point x="331" y="975" type="line"/>
      <point x="644" y="975" type="line"/>
      <point x="644" y="976" type="line"/>
      <point x="558" y="976" type="line"/>
      <point x="683" y="1514" type="line"/>
      <point x="701" y="1514" type="line" smooth="yes"/>
      <point x="771" y="1514"/>
      <point x="813" y="1423"/>
      <point x="813" y="1331" type="curve"/>
      <point x="815" y="1331" type="line"/>
      <point x="856" y="1515" type="line"/>
      <point x="355" y="1515" type="line"/>
      <point x="314" y="1331" type="line"/>
      <point x="316" y="1331" type="line"/>
      <point x="358" y="1422"/>
      <point x="433" y="1514"/>
      <point x="503" y="1514" type="curve" smooth="yes"/>
      <point x="528" y="1514" type="line"/>
      <point x="403" y="976" type="line"/>
      <point x="331" y="976" type="line"/>
    </contour>
  </outline>
</glyph>
<glyph name="product" format="2">
  <advance width="1696"/>
  <unicode hex="220F"/>
  <outline>
    <contour>
      <point x="939" y="0" type="line"/>
      <point x="1369" y="0" type="line"/>
      <point x="1715" y="1500" type="line"/>
      <point x="1285" y="1500" type="line"/>
    </contour>
    <contour>
      <point x="-92" y="0" type="line"/>
      <point x="678" y="0" type="line"/>
      <point x="678" y="4" type="line"/>
      <point x="-92" y="4" type="line"/>
    </contour>
    <contour>
      <point x="779" y="0" type="line"/>
      <point x="1548" y="0" type="line"/>
      <point x="1548" y="4" type="line"/>
      <point x="779" y="4" type="line"/>
    </contour>
    <contour>
      <point x="89" y="0" type="line"/>
      <point x="519" y="0" type="line"/>
      <point x="865" y="1500" type="line"/>
      <point x="435" y="1500" type="line"/>
    </contour>
    <contour>
      <point x="237" y="1496" type="line"/>
      <point x="1877" y="1496" type="line"/>
      <point x="1877" y="1500" type="line"/>
      <point x="237" y="1500" type="line"/>
    </contour>
  </outline>
</glyph>
<glyph name="radical" format="2">
  <advance width="1190"/>
  <unicode hex="221A"/>
  <outline>
    <contour>
      <point x="414" y="-20" type="line"/>
      <point x="498" y="-20" type="line"/>
      <point x="1198" y="1496" type="line"/>
      <point x="1416" y="1496" type="line"/>
      <point x="1416" y="1500" type="line"/>
      <point x="1195" y="1500" type="line"/>
      <point x="661" y="348" type="line"/>
      <point x="543" y="676" type="line"/>
      <point x="95" y="450" type="line"/>
      <point x="94" y="446" type="line"/>
      <point x="220" y="507" type="line"/>
    </contour>
  </outline>
</glyph>
<glyph name="lessequal" format="2">
  <advance width="1119"/>
  <unicode hex="2264"/>
  <outline>
    <contour>
      <point x="120" y="774" type="line"/>
      <point x="1000" y="1196" type="line"/>
      <point x="1000" y="1200" type="line"/>
      <point x="120" y="778" type="line"/>
    </contour>
    <contour>
      <point x="178.3" y="78" type="line"/>
      <point x="1058.775" y="78" type="line"/>
      <point x="1058.775" y="82" type="line"/>
      <point x="178.3" y="82" type="line"/>
    </contour>
    <contour>
      <point x="1000" y="350" type="line"/>
      <point x="1000" y="354" type="line"/>
      <point x="120" y="776" type="line"/>
      <point x="120" y="772" type="line"/>
    </contour>
  </outline>
</glyph>
<glyph name="caroncomb.alt" format="2">
  <anchor x="334" y="920" name="_topright"/>
  <outline>
    <contour>
      <point x="381" y="906" type="line"/>
      <point x="629" y="906"/>
      <point x="908" y="1037"/>
      <point x="908" y="1301" type="curve" smooth="yes"/>
      <point x="908" y="1433"/>
      <point x="811" y="1520"/>
      <point x="701" y="1520" type="curve" smooth="yes"/>
      <point x="592" y="1520"/>
      <point x="497" y="1426"/>
      <point x="497" y="1325" type="curve" smooth="yes"/>
      <point x="497" y="1220"/>
      <point x="577" y="1139"/>
      <point x="701" y="1139" type="curve" smooth="yes"/>
      <point x="788" y="1139"/>
      <point x="906" y="1189"/>
      <point x="906" y="1301" type="curve"/>
      <point x="905" y="1301" type="line"/>
      <point x="905" y="1040"/>
      <point x="630" y="909"/>
      <point x="381" y="909" type="curve"/>
    </contour>
  </outline>
</glyph>
<glyph name="eth.sc" format="2">
  <advance width="1547"/>
  <outline>
    <contour>
      <point x="125.167" y="548" type="line"/>
      <point x="805.169" y="548" type="line"/>
      <point x="805.169" y="552" type="line"/>
      <point x="125.167" y="552" type="line"/>
    </contour>
    <component base="d.sc"/>
  </outline>
</glyph>
<glyph name="f.sc" format="2">
  <advance width="1218"/>
  <anchor x="315" y="0" name="bottom"/>
  <anchor x="858.485" y="1020" name="top"/>
  <outline>
    <contour>
      <point x="86" y="0" type="line"/>
      <point x="516" y="0" type="line"/>
      <point x="751.485" y="1020" type="line"/>
      <point x="321.485" y="1020" type="line"/>
    </contour>
    <contour>
      <point x="-45" y="0" type="line"/>
      <point x="665" y="0" type="line"/>
      <point x="665.924" y="4" type="line"/>
      <point x="-44.076" y="4" type="line"/>
    </contour>
    <contour>
      <point x="844.881" y="346" type="curve"/>
      <point x="848.881" y="346" type="line"/>
      <point x="920.219" y="655" type="line"/>
      <point x="916.219" y="655" type="line"/>
      <point x="846.826" y="571"/>
      <point x="737.281" y="508"/>
      <point x="663.281" y="508" type="curve" smooth="yes"/>
      <point x="552.281" y="508" type="line"/>
      <point x="551.357" y="504" type="line"/>
      <point x="662.357" y="504" type="line" smooth="yes"/>
      <point x="736.357" y="504"/>
      <point x="814.273" y="430"/>
    </contour>
    <contour>
      <point x="1107.92" y="710" type="curve"/>
      <point x="1111.92" y="710" type="line"/>
      <point x="1183.49" y="1020" type="line"/>
      <point x="190.485" y="1020" type="line"/>
      <point x="189.562" y="1016" type="line"/>
      <point x="869.562" y="1016" type="line" smooth="yes"/>
      <point x="983.562" y="1016"/>
      <point x="1100.4" y="894"/>
    </contour>
  </outline>
</glyph>
<glyph name="five.tosf" format="2">
  <advance width="1400"/>
  <outline>
    <contour>
      <point x="137" y="153.918" type="line"/>
      <point x="140" y="153.918" type="line"/>
      <point x="271" y="520.961" type="line"/>
      <point x="1192" y="520.961" type="line"/>
      <point x="1313" y="1023.982" type="line"/>
      <point x="1309" y="1023.982" type="line"/>
      <point x="1283" y="920.335" type="line"/>
      <point x="407" y="920.335" type="line"/>
    </contour>
    <contour>
      <point x="402" y="-525.018" type="curve" smooth="yes"/>
      <point x="754" y="-525.018"/>
      <point x="1121" y="-305.362"/>
      <point x="1121" y="8.431" type="curve" smooth="yes"/>
      <point x="1121" y="255.663"/>
      <point x="886" y="329.832"/>
      <point x="604" y="329.832" type="curve" smooth="yes"/>
      <point x="422" y="329.832"/>
      <point x="211" y="261.368"/>
      <point x="139" y="153.918" type="curve"/>
      <point x="143" y="153.918" type="line"/>
      <point x="217" y="252.81"/>
      <point x="393" y="312.716"/>
      <point x="520" y="312.716" type="curve" smooth="yes"/>
      <point x="618" y="312.716"/>
      <point x="690" y="225.234"/>
      <point x="690" y="84.503" type="curve" smooth="yes"/>
      <point x="690" y="-133.251"/>
      <point x="620" y="-510.754"/>
      <point x="332" y="-510.754" type="curve" smooth="yes"/>
      <point x="168" y="-510.754"/>
      <point x="-47" y="-422.322"/>
      <point x="-47" y="-203.617" type="curve"/>
      <point x="-48" y="-203.617" type="line"/>
      <point x="-48" y="-298.706"/>
      <point x="63" y="-391.893"/>
      <point x="173" y="-391.893" type="curve" smooth="yes"/>
      <point x="282" y="-391.893"/>
      <point x="389" y="-306.313"/>
      <point x="389" y="-192.206" type="curve" smooth="yes"/>
      <point x="389" y="-78.099"/>
      <point x="283" y="9.382"/>
      <point x="173" y="9.382" type="curve" smooth="yes"/>
      <point x="52" y="9.382"/>
      <point x="-50" y="-87.608"/>
      <point x="-50" y="-203.617" type="curve" smooth="yes"/>
      <point x="-50" y="-417.567"/>
      <point x="148" y="-525.018"/>
    </contour>
  </outline>
</glyph>
<glyph name="oe.sc" format="2">
  <advance width="1613"/>
  <outline>
    <contour>
      <point x="726" y="1020" type="curve"/>
      <point x="740" y="1016" type="line"/>
      <point x="602" y="1016"/>
      <point x="518" y="773"/>
      <point x="457" y="510" type="curve" smooth="yes"/>
      <point x="396" y="247"/>
      <point x="359" y="4"/>
      <point x="517" y="4" type="curve"/>
      <point x="490" y="0" type="line"/>
      <point x="134" y="0"/>
      <point x="-47" y="184"/>
      <point x="28" y="510" type="curve" smooth="yes"/>
      <point x="103" y="836"/>
      <point x="389" y="1020"/>
    </contour>
    <component base="e.sc" xOffset="535"/>
  </outline>
</glyph>
<glyph name="s.sc" format="2">
  <advance width="1318"/>
  <anchor x="496.383" y="-20" name="bottom"/>
  <anchor x="719.485" y="1020" name="top"/>
  <outline>
    <contour>
      <point x="533.536" y="-28" type="curve" smooth="yes"/>
      <point x="775.536" y="-28"/>
      <point x="1026.47" y="80"/>
      <point x="1093.42" y="370" type="curve" smooth="yes"/>
      <point x="1192.69" y="800"/>
      <point x="463.455" y="708"/>
      <point x="507.781" y="900" type="curve" smooth="yes"/>
      <point x="524.635" y="973"/>
      <point x="579.794" y="1030"/>
      <point x="701.794" y="1030" type="curve" smooth="yes"/>
      <point x="909.794" y="1030"/>
      <point x="1031.93" y="866"/>
      <point x="1087.46" y="708" type="curve"/>
      <point x="1091.46" y="708" type="line"/>
      <point x="1038.86" y="870"/>
      <point x="910.103" y="1040"/>
      <point x="684.103" y="1040" type="curve" smooth="yes"/>
      <point x="452.103" y="1040"/>
      <point x="237.016" y="940"/>
      <point x="188.534" y="730" type="curve" smooth="yes"/>
      <point x="84.644" y="280"/>
      <point x="833.891" y="450"/>
      <point x="776.174" y="200" type="curve" smooth="yes"/>
      <point x="755.857" y="112"/>
      <point x="658.075" y="-17"/>
      <point x="496.075" y="-17" type="curve" smooth="yes"/>
      <point x="288.075" y="-17"/>
      <point x="139.707" y="146"/>
      <point x="89.421" y="370" type="curve"/>
      <point x="85.421" y="370" type="line"/>
      <point x="139.398" y="136"/>
      <point x="281.536" y="-28"/>
    </contour>
    <contour>
      <point x="-4.617" y="-20" type="line"/>
      <point x="-0.617" y="-20" type="line"/>
      <point x="232.778" y="90" type="line"/>
      <point x="165.092" y="152"/>
      <point x="126.33" y="231"/>
      <point x="85.421" y="370" type="curve"/>
    </contour>
    <contour>
      <point x="1091.46" y="708" type="curve"/>
      <point x="1168.1" y="1040" type="line"/>
      <point x="1164.1" y="1040" type="line"/>
      <point x="943.016" y="940" type="line"/>
      <point x="1014.09" y="871"/>
      <point x="1049.39" y="816"/>
    </contour>
  </outline>
</glyph>
<glyph name="seven.osf" format="2">
  <advance width="1148"/>
  <outline>
    <contour>
      <point x="314" y="-519.947" type="curve" smooth="yes"/>
      <point x="462" y="-519.947"/>
      <point x="562" y="-423.316"/>
      <point x="562" y="-296.368" type="curve" smooth="yes"/>
      <point x="562" y="-171.315"/>
      <point x="418" y="-105"/>
      <point x="418" y="-23.526" type="curve" smooth="yes"/>
      <point x="418" y="61.738"/>
      <point x="485" y="106.264"/>
      <point x="638" y="260.685" type="curve" smooth="yes"/>
      <point x="870" y="495.633"/>
      <point x="1226" y="920.055"/>
      <point x="1226" y="920.055" type="curve"/>
      <point x="172" y="920.055" type="line"/>
      <point x="40" y="370.58" type="line"/>
      <point x="44" y="370.58" type="line"/>
      <point x="78" y="512.686" type="line"/>
      <point x="868" y="512.686" type="line"/>
      <point x="740" y="370.58"/>
      <point x="690" y="315.633"/>
      <point x="560" y="188.685" type="curve" smooth="yes"/>
      <point x="372" y="4.896"/>
      <point x="82" y="-112.578"/>
      <point x="82" y="-300.158" type="curve" smooth="yes"/>
      <point x="82" y="-449.842"/>
      <point x="186" y="-519.947"/>
    </contour>
  </outline>
</glyph>
<glyph name="seven.tosf" format="2">
  <advance width="1160"/>
  <outline>
    <contour>
      <point x="420" y="-519.947" type="curve" smooth="yes"/>
      <point x="568" y="-519.947"/>
      <point x="668" y="-423.316"/>
      <point x="668" y="-296.368" type="curve" smooth="yes"/>
      <point x="668" y="-171.315"/>
      <point x="524" y="-105"/>
      <point x="524" y="-23.526" type="curve" smooth="yes"/>
      <point x="524" y="61.738"/>
      <point x="591" y="106.264"/>
      <point x="744" y="260.685" type="curve" smooth="yes"/>
      <point x="976" y="495.633"/>
      <point x="1332" y="920.055"/>
      <point x="1332" y="920.055" type="curve"/>
      <point x="278" y="920.055" type="line"/>
      <point x="146" y="370.58" type="line"/>
      <point x="150" y="370.58" type="line"/>
      <point x="184" y="512.686" type="line"/>
      <point x="974" y="512.686" type="line"/>
      <point x="846" y="370.58"/>
      <point x="796" y="315.633"/>
      <point x="666" y="188.685" type="curve" smooth="yes"/>
      <point x="478" y="4.896"/>
      <point x="188" y="-112.578"/>
      <point x="188" y="-300.158" type="curve" smooth="yes"/>
      <point x="188" y="-449.842"/>
      <point x="292" y="-519.947"/>
    </contour>
  </outline>
</glyph>
<glyph name="tbar.sc" format="2">
  <advance width="1197"/>
  <outline>
    <contour>
      <point x="266" y="498" type="line"/>
      <point x="1048.002" y="498" type="line"/>
      <point x="1048.002" y="502" type="line"/>
      <point x="266" y="502" type="line"/>
    </contour>
    <component base="t.sc"/>
  </outline>
</glyph>
<glyph name="three.tosf" format="2">
  <advance width="1400"/>
  <outline>
    <contour>
      <point x="392" y="-519.96" type="curve" smooth="yes"/>
      <point x="724" y="-519.96"/>
      <point x="1112" y="-373.971"/>
      <point x="1112" y="-61.137" type="curve" smooth="yes"/>
      <point x="1112" y="148.366"/>
      <point x="888" y="268.76"/>
      <point x="456" y="268.76" type="curve"/>
      <point x="456" y="265.916" type="line"/>
      <point x="674" y="265.916"/>
      <point x="690" y="141.73"/>
      <point x="690" y="1.429" type="curve" smooth="yes"/>
      <point x="690" y="-205.23"/>
      <point x="610" y="-505.74"/>
      <point x="352" y="-505.74" type="curve" smooth="yes"/>
      <point x="106" y="-505.74"/>
      <point x="-46" y="-313.3"/>
      <point x="-46" y="-152.143" type="curve"/>
      <point x="-48" y="-152.143" type="line"/>
      <point x="-48" y="-246.941"/>
      <point x="56" y="-330.364"/>
      <point x="164" y="-330.364" type="curve" smooth="yes"/>
      <point x="273" y="-330.364"/>
      <point x="377" y="-244.097"/>
      <point x="377" y="-136.028" type="curve" smooth="yes"/>
      <point x="377" y="-20.374"/>
      <point x="281" y="63.996"/>
      <point x="170" y="63.996" type="curve" smooth="yes"/>
      <point x="50" y="63.996"/>
      <point x="-50" y="-27.01"/>
      <point x="-50" y="-152.143" type="curve" smooth="yes"/>
      <point x="-50" y="-318.04"/>
      <point x="108" y="-519.96"/>
    </contour>
    <contour>
      <point x="456" y="266.864" type="line"/>
      <point x="918" y="266.864"/>
      <point x="1232" y="458.356"/>
      <point x="1232" y="647.952" type="curve" smooth="yes"/>
      <point x="1232" y="857.455"/>
      <point x="925" y="938.034"/>
      <point x="702" y="938.034" type="curve" smooth="yes"/>
      <point x="498" y="938.034"/>
      <point x="229" y="830.912"/>
      <point x="229" y="636.576" type="curve" smooth="yes"/>
      <point x="229" y="511.443"/>
      <point x="334" y="424.228"/>
      <point x="445" y="424.228" type="curve" smooth="yes"/>
      <point x="545" y="424.228"/>
      <point x="658" y="501.015"/>
      <point x="658" y="624.252" type="curve" smooth="yes"/>
      <point x="658" y="738.01"/>
      <point x="554" y="819.536"/>
      <point x="445" y="819.536" type="curve" smooth="yes"/>
      <point x="344" y="819.536"/>
      <point x="231" y="740.854"/>
      <point x="231" y="636.576" type="curve"/>
      <point x="233" y="636.576" type="line"/>
      <point x="233" y="835.652"/>
      <point x="509" y="925.71"/>
      <point x="642" y="925.71" type="curve" smooth="yes"/>
      <point x="780" y="925.71"/>
      <point x="810" y="816.692"/>
      <point x="810" y="695.351" type="curve" smooth="yes"/>
      <point x="810" y="574.009"/>
      <point x="744" y="269.708"/>
      <point x="456" y="269.708" type="curve"/>
    </contour>
  </outline>
</glyph>
